<?xml version="1.0" encoding="utf-8"?>
<!-- Generator: Adobe Illustrator 20.1.0, SVG Export Plug-In . SVG Version: 6.00 Build 0)  -->
<svg version="1.1" id="Layer_1" xmlns="http://www.w3.org/2000/svg" xmlns:xlink="http://www.w3.org/1999/xlink" x="0px" y="0px"
	 viewBox="0 0 364.5 251.8" style="enable-background:new 0 0 364.5 251.8;" xml:space="preserve">
<style type="text/css">
	.st0{fill:#2A2A2A;}
</style>
<rect y="35.3" class="st0" width="4.1" height="216.5"/>
<rect x="13.9" y="35.3" class="st0" width="4.1" height="216.5"/>
<rect x="27.7" y="35.3" class="st0" width="4.1" height="216.5"/>
<rect x="41.6" y="35.3" class="st0" width="4.1" height="216.5"/>
<rect x="55.4" y="35.3" class="st0" width="4.1" height="216.5"/>
<rect x="69.3" y="35.3" class="st0" width="4.1" height="216.5"/>
<rect x="83.2" y="35.3" class="st0" width="4.1" height="216.5"/>
<rect x="97" y="35.3" class="st0" width="4.1" height="216.5"/>
<rect x="110.9" y="35.3" class="st0" width="4.1" height="216.5"/>
<rect x="124.7" class="st0" width="4.2" height="216.7"/>
<rect x="138.6" class="st0" width="4.1" height="216.7"/>
<rect x="152.5" class="st0" width="4.1" height="216.7"/>
<rect x="166.3" class="st0" width="4.1" height="216.7"/>
<rect x="180.2" class="st0" width="4.1" height="216.7"/>
<rect x="194" class="st0" width="4.1" height="216.7"/>
<rect x="207.9" class="st0" width="4.1" height="216.7"/>
<rect x="221.8" class="st0" width="4.1" height="216.7"/>
<rect x="235.6" class="st0" width="4.1" height="216.7"/>
<rect x="249.5" class="st0" width="4.1" height="216.7"/>
<rect x="277.2" y="52.8" class="st0" width="4.1" height="181.4"/>
<rect x="263.3" y="52.8" class="st0" width="4.1" height="181.4"/>
<rect x="291.1" y="52.8" class="st0" width="4.1" height="181.4"/>
<rect x="304.9" y="52.8" class="st0" width="4.1" height="181.4"/>
<rect x="318.8" y="52.8" class="st0" width="4.1" height="181.4"/>
<rect x="332.6" y="52.8" class="st0" width="4.1" height="181.4"/>
<rect x="346.5" y="52.8" class="st0" width="4.1" height="181.4"/>
<rect x="360.4" y="52.8" class="st0" width="4.1" height="181.4"/>
</svg>
